<svg width="40" height="40" viewBox="0 0 40 40" fill="none" xmlns="http://www.w3.org/2000/svg">
<path fill-rule="evenodd" clip-rule="evenodd" d="M19.9988 0C8.9552 0 0 9.18108 0 20.5075C0 29.5668 5.73 37.2526 13.6784 39.9647C14.6784 40.153 15.0436 39.5197 15.0436 38.9763C15.0436 38.4895 15.0264 37.2001 15.0164 35.4886C9.4532 36.728 8.2792 32.7399 8.2792 32.7399C7.3696 30.3711 6.0588 29.7403 6.0588 29.7403C4.2428 28.4681 6.196 28.4939 6.196 28.4939C8.2032 28.6391 9.2596 30.6073 9.2596 30.6073C11.0436 33.7411 13.9404 32.8359 15.08 32.3114C15.2616 30.9862 15.7784 30.0827 16.3496 29.5701C11.9084 29.0525 7.2396 27.2935 7.2396 19.4351C7.2396 17.1966 8.0188 15.3658 9.2984 13.9324C9.0928 13.4136 8.4064 11.3285 9.4944 8.5056C9.4944 8.5056 11.1736 7.95439 14.9944 10.6079C16.5896 10.1531 18.3004 9.92546 20.0016 9.91767C21.7 9.92546 23.4112 10.1531 25.0088 10.6079C28.8272 7.95439 30.5032 8.5056 30.5032 8.5056C31.5944 11.3289 30.908 13.4136 30.7024 13.9324C31.9844 15.3658 32.758 17.1962 32.758 19.4351C32.758 27.3128 28.082 29.0464 23.6264 29.5541C24.3444 30.1873 24.9844 31.4386 24.9844 33.3514C24.9844 36.0927 24.96 38.3045 24.96 38.9767C24.96 39.5251 25.3204 40.1632 26.3352 39.9627C34.2748 37.2452 40 29.5643 40 20.5075C40 9.18108 31.0444 0 19.9988 0Z" fill="#796E9F"/>
</svg>
