<svg width="60" height="60" viewBox="0 0 60 60" fill="none" xmlns="http://www.w3.org/2000/svg">
<g clip-path="url(#clip0)">
<path fill-rule="evenodd" clip-rule="evenodd" d="M29.9982 0C13.4328 0 0 13.7716 0 30.7613C0 44.3502 8.595 55.8788 20.5176 59.9471C22.0176 60.2295 22.5654 59.2796 22.5654 58.4645C22.5654 57.7343 22.5396 55.8001 22.5246 53.2329C14.1798 55.092 12.4188 49.1099 12.4188 49.1099C11.0544 45.5566 9.0882 44.6104 9.0882 44.6104C6.3642 42.7021 9.294 42.7409 9.294 42.7409C12.3048 42.9586 13.8894 45.9109 13.8894 45.9109C16.5654 50.6116 20.9106 49.2539 22.62 48.467C22.8924 46.4794 23.6676 45.1241 24.5244 44.3551C17.8626 43.5788 10.8594 40.9402 10.8594 29.1526C10.8594 25.7949 12.0282 23.0487 13.9476 20.8986C13.6392 20.1204 12.6096 16.9928 14.2416 12.7584C14.2416 12.7584 16.7604 11.9316 22.4916 15.9119C24.8844 15.2296 27.4506 14.8882 30.0024 14.8765C32.55 14.8882 35.1168 15.2296 37.5132 15.9119C43.2408 11.9316 45.7548 12.7584 45.7548 12.7584C47.3916 16.9934 46.362 20.1204 46.0536 20.8986C47.9766 23.0487 49.137 25.7943 49.137 29.1526C49.137 40.9691 42.123 43.5695 35.4396 44.3311C36.5166 45.281 37.4766 47.1579 37.4766 50.0272C37.4766 54.1391 37.44 57.4568 37.44 58.4651C37.44 59.2876 37.9806 60.2448 39.5028 59.944C51.4122 55.8678 60 44.3465 60 30.7613C60 13.7716 46.5666 0 29.9982 0Z" fill="#796E9F"/>
</g>
<defs>
<clipPath id="clip0">
<rect width="60" height="60" fill="white"/>
</clipPath>
</defs>
</svg>
