<svg width="60" height="60" viewBox="0 0 60 60" fill="none" xmlns="http://www.w3.org/2000/svg">
<path d="M33.2081 25.3739V25.3033C33.1935 25.3265 33.1746 25.3514 33.1606 25.3739H33.2081Z" fill="#796E9F"/>
<path d="M30 0C13.4316 0 0 13.4316 0 30C0 46.5684 13.4316 60 30 60C46.5684 60 60 46.5684 60 30C60 13.4316 46.5684 0 30 0ZM21.9671 43.9877H14.7305V22.2177H21.9671V43.9877ZM18.3491 19.247H18.3004C15.873 19.247 14.2998 17.5734 14.2998 15.4837C14.2998 13.3477 15.9199 11.7227 18.3965 11.7227C20.8732 11.7227 22.396 13.3471 22.4434 15.4837C22.4434 17.574 20.8738 19.247 18.3491 19.247ZM48.0656 43.9877H40.8284V32.3404C40.8284 29.4147 39.7814 27.4181 37.1624 27.4181C35.1626 27.4181 33.9727 28.7638 33.4489 30.0657C33.2578 30.5311 33.2085 31.179 33.2085 31.83V43.9877H25.9689C25.9689 43.9877 26.0663 24.2612 25.9689 22.2177H33.2073V25.3034C34.1692 23.822 35.8866 21.7061 39.7309 21.7061C44.4938 21.7061 48.0644 24.8173 48.0644 31.5045V43.9877H48.0656Z" fill="#796E9F"/>
</svg>
