<svg width="60" height="60" viewBox="0 0 60 60" fill="none" xmlns="http://www.w3.org/2000/svg">
<path d="M30 0C13.4316 0 0 13.4316 0 30C0 46.5684 13.4316 60 30 60C46.5684 60 60 46.5684 60 30C60 13.4316 46.5684 0 30 0ZM47.9463 17.5704C47.9597 17.5704 47.9713 17.5777 47.9847 17.5783L31.2441 34.3188C30.6862 34.8767 29.6982 34.8779 29.1404 34.3176L12.3931 17.5704H47.9463ZM11.2257 18.6904C11.2257 18.6813 11.2305 18.674 11.2305 18.6654L22.6101 30.045L11.2257 41.4295V18.6904ZM12.3457 42.7423C12.294 42.7423 12.2496 42.7198 12.1997 42.7131L23.7386 31.1742L28.0112 35.4467C28.5922 36.0277 29.3667 36.3471 30.1922 36.3471C31.0184 36.3471 31.7917 36.0265 32.3727 35.4467L36.5071 31.3123L47.9372 42.7423H12.3457ZM49.0664 41.6138L37.6363 30.1837L49.0664 18.7543V41.6138Z" fill="#796E9F"/>
</svg>
