<svg width="60" height="60" viewBox="0 0 60 60" fill="none" xmlns="http://www.w3.org/2000/svg">
<path d="M30 0C13.4316 0 0 13.4316 0 30C0 46.5684 13.4316 60 30 60C46.5684 60 60 46.5684 60 30C60 13.4316 46.5684 0 30 0Z" fill="#796E9F"/>
<g clip-path="url(#clip0)">
<path d="M42.353 36.7511C41.441 35.9693 40.3995 35.3183 39.4876 34.6668C37.5335 33.2341 35.7102 33.2341 34.2775 35.4485C33.4957 36.7511 32.3234 36.7511 31.1517 36.2303C27.895 34.6674 25.29 32.4529 23.7271 29.0661C23.0755 27.6334 23.0755 26.2007 24.639 25.1585C25.4208 24.6378 26.3321 23.9862 26.2019 22.6837C26.0718 21.1208 22.2944 15.7805 20.7315 15.2591C20.0799 14.9987 19.429 14.9987 18.7774 15.2591C15.2604 16.4315 13.6975 19.4271 15.1302 22.8139C19.2982 33.2341 26.8529 40.3982 37.0127 44.8266C37.6637 45.087 38.3152 45.087 38.5756 45.2172C40.9203 45.2172 43.6555 43.0027 44.4373 40.7888C45.219 38.7045 43.6555 37.7932 42.353 36.7511Z" fill="white"/>
<path d="M30.8899 16.1711C32.0805 16.3591 33.1598 16.6146 34.1551 16.9304C34.3236 16.9839 34.5 17.032 34.6631 17.0892C34.7215 17.1099 34.7744 17.1348 34.8322 17.1561C35.8865 17.5406 36.8313 18.0054 37.6623 18.5687C40.5849 20.549 42.1722 23.6936 42.7422 28.4152C42.7422 29.1964 42.4818 30.2385 43.524 30.2385C43.524 30.2385 43.524 30.2385 43.5246 30.2385C44.5667 30.2385 44.3063 29.1964 44.3063 28.5454C44.3793 24.5156 42.4332 20.6919 39.4412 18.0711C37.6502 16.5027 35.4844 15.3675 33.1531 14.8747C32.8878 14.8187 32.6207 14.7682 32.3518 14.7287C31.9126 14.6648 31.4685 14.624 31.0207 14.6082C30.9562 14.6247 30.8814 14.6307 30.7999 14.6307C30.6016 14.6313 30.3698 14.5979 30.1489 14.6015C29.72 14.6009 29.3301 14.7129 29.3276 15.3839C29.3276 15.3857 29.327 15.3876 29.3264 15.39C29.327 16.1711 30.239 16.0409 30.8899 16.1711Z" fill="white"/>
<path d="M32.1938 18.385C31.5428 18.2548 30.5007 17.8636 30.3705 18.9057C30.2403 19.9479 31.2818 19.8177 31.9334 19.9479C36.6221 20.99 38.185 22.6831 38.9668 27.2422C39.097 27.8932 38.8366 28.9353 40.0089 28.8052C40.9203 28.675 40.5297 27.763 40.6599 27.2422C40.6599 22.8139 36.8825 18.9063 32.1938 18.385Z" fill="white"/>
<path d="M32.5836 22.0316C32.0622 22.0316 31.5415 22.0316 31.4113 22.5523C31.1509 23.3341 31.8025 23.4643 32.3232 23.5945C34.2767 23.8555 35.3189 24.897 35.4491 26.8511C35.5792 27.3725 35.8402 27.763 36.361 27.763C37.1428 27.6328 37.1428 26.9813 37.1428 26.4605C37.1428 24.2466 34.7981 21.902 32.5836 22.0316Z" fill="white"/>
</g>
<defs>
<clipPath id="clip0">
<rect width="30.0456" height="30.6163" fill="white" transform="translate(14.6008 14.6009)"/>
</clipPath>
</defs>
</svg>
