<svg width="60" height="60" viewBox="0 0 60 60" fill="none" xmlns="http://www.w3.org/2000/svg">
<path d="M30 0C13.4316 0 0 13.4316 0 30C0 46.5684 13.4316 60 30 60C46.5684 60 60 46.5684 60 30C60 13.4316 46.5684 0 30 0ZM46.8756 13.9433L40.1586 45.4885C40.0326 46.1078 39.3269 46.4114 38.791 46.0756L28.4614 39.2247L23.0281 44.2809C22.5444 44.6946 21.7955 44.4932 21.585 43.8922L18.0473 32.7346L8.54762 28.8386C7.81879 28.5064 7.82913 27.3457 8.57621 27.0555L45.6601 12.9188C46.3281 12.6596 47.018 13.2412 46.8756 13.9433Z" fill="#796E9F"/>
<path d="M22.7263 40.5832L23.3298 34.8475L40.0831 18.4714L19.8584 31.7533L22.7263 40.5832Z" fill="#796E9F"/>
</svg>
