<svg width="60" height="60" viewBox="0 0 60 60" fill="none" xmlns="http://www.w3.org/2000/svg">
<path d="M30 0C13.4316 0 0 13.4316 0 30C0 46.5684 13.4316 60 30 60C46.5684 60 60 46.5684 60 30C60 13.4316 46.5684 0 30 0Z" fill="#796E9F"/>
<path d="M44.0589 16.2977C40.6168 12.8512 36.0388 10.9525 31.1615 10.9507C21.1124 10.9507 12.9328 19.129 12.9292 29.1817C12.928 32.3952 13.7675 35.5319 15.3627 38.2964L12.7759 47.7444L22.4411 45.2093C25.1039 46.6621 28.1026 47.4274 31.1536 47.4286H31.1609C41.2093 47.4286 49.3889 39.2491 49.3931 29.197C49.3962 24.3245 47.5017 19.7441 44.0589 16.2977ZM31.1621 44.349H31.156C28.4366 44.3478 25.7695 43.6172 23.4431 42.2368L22.8894 41.9083L17.1537 43.4128L18.6844 37.8206L18.3242 37.2469C16.8076 34.8341 16.0063 32.046 16.0075 29.1824C16.0106 20.827 22.8091 14.0297 31.1675 14.0297C35.215 14.0309 39.0198 15.6096 41.881 18.4738C44.7421 21.338 46.3166 25.1452 46.3154 29.1945C46.3123 37.5511 39.5144 44.349 31.1621 44.349Z" fill="white"/>
<path d="M39.4743 32.9993C39.0186 32.7712 36.7792 31.6694 36.3612 31.5173C35.9439 31.3652 35.6397 31.2892 35.3361 31.7454C35.0326 32.2017 34.1595 33.2274 33.8937 33.5316C33.6278 33.8358 33.362 33.8735 32.9069 33.6454C32.4512 33.4172 30.9832 32.9366 29.2433 31.3841C27.8891 30.1758 26.9747 28.6841 26.7088 28.2284C26.443 27.7722 26.6802 27.5258 26.9084 27.2989C27.1134 27.0944 27.364 26.7665 27.5916 26.5007C27.8191 26.2348 27.8951 26.0444 28.0472 25.7408C28.1993 25.4366 28.1233 25.1708 28.0095 24.9426C27.8958 24.7145 26.9844 22.472 26.6048 21.5601C26.2349 20.6719 25.8595 20.7923 25.5797 20.7783C25.3144 20.7649 25.0103 20.7625 24.7067 20.7625C24.4031 20.7625 23.9097 20.8763 23.4918 21.3326C23.0744 21.7888 21.8972 22.8906 21.8972 25.1331C21.8972 27.3755 23.5295 29.5419 23.7576 29.8455C23.9851 30.1497 26.9698 34.7508 31.5399 36.7243C32.6271 37.194 33.4751 37.4739 34.137 37.6838C35.2285 38.0305 36.2213 37.9818 37.0067 37.8644C37.8822 37.7336 39.7018 36.7627 40.0814 35.6986C40.4611 34.6346 40.4611 33.722 40.3473 33.5322C40.2335 33.3418 39.9299 33.2274 39.4743 32.9993Z" fill="white"/>
</svg>
